<svg width="247" height="220" viewBox="0 0 247 220" fill="none" xmlns="http://www.w3.org/2000/svg">
<g filter="url(#filter0_d_9_52)">
<rect x="31" y="104" width="185" height="84" fill="#D9D9D9"/>
</g>
<g filter="url(#filter1_d_9_52)">
<path d="M27.2344 28.5L205 39C217.234 124.5 223.42 168.528 226.038 191.5H26.0381L27.2344 28.5Z" fill="#47277B"/>
</g>
<g filter="url(#filter2_d_9_52)">
<path d="M183.055 25L42.6201 35.5C32.9548 121 28.0683 165.028 26 188H184L183.055 25Z" fill="#47277B"/>
</g>
<path d="M21 0H221C219.182 112.866 224.303 173.442 227 200H21V0Z" fill="#00D4FF"/>
<rect width="99" height="89" transform="translate(72 47)" fill="#00D4FF"/>
<path d="M119.16 93.6036H94.6875V89.3965H119.16V67.3958H123.84V89.3965H148.313V93.6036H123.84V115.604H119.16V93.6036Z" fill="#07353F"/>
<rect x="21" width="200" height="35" fill="black" fill-opacity="0.35"/>
<path d="M68.528 150.992C68.656 151.301 68.8373 151.6 69.072 151.888C69.3067 152.165 69.5093 152.373 69.68 152.512C69.424 153.045 69.1093 153.435 68.736 153.68C68.4267 153.883 68.096 154 67.744 154.032C67.552 154.053 67.3333 154.037 67.088 153.984C66.8427 153.931 66.5867 153.781 66.32 153.536C66.064 153.28 65.808 152.875 65.552 152.32C65.4773 152.139 65.312 152.011 65.056 151.936C64.8 151.861 64.528 151.819 64.24 151.808C63.952 151.787 63.7173 151.776 63.536 151.776C63.3547 151.776 63.1307 151.781 62.864 151.792C62.608 151.803 62.3733 151.845 62.16 151.92C61.9467 151.995 61.8187 152.128 61.776 152.32C61.7333 152.491 61.728 152.667 61.76 152.848C61.792 153.029 61.8613 153.147 61.968 153.2C61.7867 153.371 61.6053 153.52 61.424 153.648C61.2533 153.776 61.0773 153.877 60.896 153.952C60.672 154.048 60.4373 154.096 60.192 154.096C59.9573 154.096 59.6907 154.043 59.392 153.936C59.2533 153.883 59.1093 153.787 58.96 153.648C58.8107 153.509 58.7093 153.317 58.656 153.072C58.6027 152.827 58.6453 152.517 58.784 152.144C58.7947 152.112 58.848 151.941 58.944 151.632C59.04 151.323 59.1627 150.917 59.312 150.416C59.472 149.904 59.6427 149.339 59.824 148.72C60.016 148.101 60.208 147.467 60.4 146.816C60.6027 146.155 60.7947 145.52 60.976 144.912C61.168 144.304 61.3387 143.755 61.488 143.264C61.6373 142.773 61.7547 142.384 61.84 142.096C61.9253 141.808 61.968 141.664 61.968 141.664C62.064 141.611 62.24 141.547 62.496 141.472C62.7627 141.387 63.0453 141.339 63.344 141.328C63.6747 141.307 63.9947 141.349 64.304 141.456C64.624 141.563 64.8693 141.776 65.04 142.096C65.1147 142.224 65.2267 142.469 65.376 142.832C65.5253 143.195 65.7013 143.632 65.904 144.144C66.1067 144.656 66.32 145.205 66.544 145.792C66.768 146.368 66.9867 146.944 67.2 147.52C67.424 148.085 67.6267 148.613 67.808 149.104C67.9893 149.595 68.144 150.011 68.272 150.352C68.4 150.683 68.4853 150.896 68.528 150.992ZM63.488 148.928C63.7653 148.907 63.9253 148.827 63.968 148.688C64.0213 148.549 64.0533 148.389 64.064 148.208C64.064 148.091 64.0427 147.947 64 147.776C63.968 147.605 63.9147 147.456 63.84 147.328C63.776 147.189 63.6907 147.12 63.584 147.12C63.4347 147.12 63.2693 147.227 63.088 147.44C62.9173 147.643 62.8213 147.851 62.8 148.064C62.768 148.267 62.784 148.464 62.848 148.656C62.9227 148.848 63.136 148.939 63.488 148.928ZM81.3205 145.472C81.3738 145.792 81.4112 146.139 81.4325 146.512C81.4645 146.885 81.4645 147.339 81.4325 147.872C81.4005 148.395 81.3258 149.04 81.2085 149.808C81.0485 150.843 80.6272 151.712 79.9445 152.416C79.2618 153.109 78.4032 153.563 77.3685 153.776C77.0805 153.84 76.7445 153.888 76.3605 153.92C75.9765 153.941 75.5925 153.963 75.2085 153.984C74.8352 153.995 74.4992 154.011 74.2005 154.032C73.9338 154.085 73.6138 154.123 73.2405 154.144C72.8672 154.165 72.5152 154.16 72.1845 154.128C71.8538 154.096 71.6138 154.037 71.4645 153.952C71.5498 153.803 71.6192 153.579 71.6725 153.28C71.7258 152.971 71.7685 152.635 71.8005 152.272C71.8325 151.909 71.8432 151.563 71.8325 151.232L71.7845 145.808C71.7845 145.371 71.7792 144.971 71.7685 144.608C71.7685 144.245 71.7578 143.963 71.7365 143.76C71.7152 143.536 71.6298 143.339 71.4805 143.168C71.3418 142.997 71.2405 142.827 71.1765 142.656C71.0058 142.187 70.9312 141.728 70.9525 141.28C71.0058 141.291 71.1232 141.307 71.3045 141.328C71.4965 141.339 71.7152 141.355 71.9605 141.376C72.2272 141.387 72.6432 141.403 73.2085 141.424C73.7845 141.445 74.3712 141.467 74.9685 141.488C74.9685 141.488 75.0538 141.493 75.2245 141.504C75.4058 141.504 75.6298 141.515 75.8965 141.536C76.1632 141.557 76.4405 141.589 76.7285 141.632C77.0165 141.664 77.2672 141.707 77.4805 141.76C78.1738 141.941 78.7552 142.192 79.2245 142.512C79.7045 142.821 80.0885 143.157 80.3765 143.52C80.6752 143.883 80.8992 144.24 81.0485 144.592C81.1978 144.933 81.2885 145.227 81.3205 145.472ZM75.7365 150.96C76.1738 150.853 76.5845 150.645 76.9685 150.336C77.3632 150.016 77.6725 149.589 77.8965 149.056C78.1312 148.512 78.2165 147.851 78.1525 147.072C78.0778 146.059 77.8112 145.355 77.3525 144.96C76.9045 144.565 76.3178 144.363 75.5925 144.352C75.3898 144.341 75.2298 144.475 75.1125 144.752C74.9952 145.029 74.9152 145.477 74.8725 146.096C74.8512 146.501 74.8352 146.805 74.8245 147.008C74.8138 147.2 74.8085 147.36 74.8085 147.488C74.8192 147.616 74.8192 147.781 74.8085 147.984C74.8085 147.984 74.8085 148.08 74.8085 148.272C74.8192 148.464 74.8352 148.704 74.8565 148.992C74.8778 149.269 74.9045 149.557 74.9365 149.856C74.9685 150.144 75.0058 150.389 75.0485 150.592C75.1018 150.816 75.2032 150.944 75.3525 150.976C75.5018 150.997 75.6298 150.992 75.7365 150.96ZM93.1174 145.472C93.1707 145.792 93.208 146.139 93.2294 146.512C93.2614 146.885 93.2614 147.339 93.2294 147.872C93.1974 148.395 93.1227 149.04 93.0054 149.808C92.8454 150.843 92.424 151.712 91.7414 152.416C91.0587 153.109 90.2 153.563 89.1654 153.776C88.8774 153.84 88.5414 153.888 88.1574 153.92C87.7734 153.941 87.3894 153.963 87.0054 153.984C86.632 153.995 86.296 154.011 85.9974 154.032C85.7307 154.085 85.4107 154.123 85.0374 154.144C84.664 154.165 84.312 154.16 83.9814 154.128C83.6507 154.096 83.4107 154.037 83.2614 153.952C83.3467 153.803 83.416 153.579 83.4694 153.28C83.5227 152.971 83.5654 152.635 83.5974 152.272C83.6294 151.909 83.64 151.563 83.6294 151.232L83.5814 145.808C83.5814 145.371 83.576 144.971 83.5654 144.608C83.5654 144.245 83.5547 143.963 83.5334 143.76C83.512 143.536 83.4267 143.339 83.2774 143.168C83.1387 142.997 83.0374 142.827 82.9734 142.656C82.8027 142.187 82.728 141.728 82.7494 141.28C82.8027 141.291 82.92 141.307 83.1014 141.328C83.2934 141.339 83.512 141.355 83.7574 141.376C84.024 141.387 84.44 141.403 85.0054 141.424C85.5814 141.445 86.168 141.467 86.7654 141.488C86.7654 141.488 86.8507 141.493 87.0214 141.504C87.2027 141.504 87.4267 141.515 87.6934 141.536C87.96 141.557 88.2374 141.589 88.5254 141.632C88.8134 141.664 89.064 141.707 89.2774 141.76C89.9707 141.941 90.552 142.192 91.0214 142.512C91.5014 142.821 91.8854 143.157 92.1734 143.52C92.472 143.883 92.696 144.24 92.8454 144.592C92.9947 144.933 93.0854 145.227 93.1174 145.472ZM87.5334 150.96C87.9707 150.853 88.3814 150.645 88.7654 150.336C89.16 150.016 89.4694 149.589 89.6934 149.056C89.928 148.512 90.0134 147.851 89.9494 147.072C89.8747 146.059 89.608 145.355 89.1494 144.96C88.7014 144.565 88.1147 144.363 87.3894 144.352C87.1867 144.341 87.0267 144.475 86.9094 144.752C86.792 145.029 86.712 145.477 86.6694 146.096C86.648 146.501 86.632 146.805 86.6214 147.008C86.6107 147.2 86.6054 147.36 86.6054 147.488C86.616 147.616 86.616 147.781 86.6054 147.984C86.6054 147.984 86.6054 148.08 86.6054 148.272C86.616 148.464 86.632 148.704 86.6534 148.992C86.6747 149.269 86.7014 149.557 86.7334 149.856C86.7654 150.144 86.8027 150.389 86.8454 150.592C86.8987 150.816 87 150.944 87.1494 150.976C87.2987 150.997 87.4267 150.992 87.5334 150.96ZM110.841 150.992C110.969 151.301 111.15 151.6 111.385 151.888C111.619 152.165 111.822 152.373 111.993 152.512C111.737 153.045 111.422 153.435 111.049 153.68C110.739 153.883 110.409 154 110.057 154.032C109.865 154.053 109.646 154.037 109.401 153.984C109.155 153.931 108.899 153.781 108.633 153.536C108.377 153.28 108.121 152.875 107.865 152.32C107.79 152.139 107.625 152.011 107.369 151.936C107.113 151.861 106.841 151.819 106.553 151.808C106.265 151.787 106.03 151.776 105.849 151.776C105.667 151.776 105.443 151.781 105.177 151.792C104.921 151.803 104.686 151.845 104.473 151.92C104.259 151.995 104.131 152.128 104.089 152.32C104.046 152.491 104.041 152.667 104.073 152.848C104.105 153.029 104.174 153.147 104.281 153.2C104.099 153.371 103.918 153.52 103.737 153.648C103.566 153.776 103.39 153.877 103.209 153.952C102.985 154.048 102.75 154.096 102.505 154.096C102.27 154.096 102.003 154.043 101.705 153.936C101.566 153.883 101.422 153.787 101.273 153.648C101.123 153.509 101.022 153.317 100.969 153.072C100.915 152.827 100.958 152.517 101.097 152.144C101.107 152.112 101.161 151.941 101.257 151.632C101.353 151.323 101.475 150.917 101.625 150.416C101.785 149.904 101.955 149.339 102.137 148.72C102.329 148.101 102.521 147.467 102.713 146.816C102.915 146.155 103.107 145.52 103.289 144.912C103.481 144.304 103.651 143.755 103.801 143.264C103.95 142.773 104.067 142.384 104.153 142.096C104.238 141.808 104.281 141.664 104.281 141.664C104.377 141.611 104.553 141.547 104.809 141.472C105.075 141.387 105.358 141.339 105.657 141.328C105.987 141.307 106.307 141.349 106.617 141.456C106.937 141.563 107.182 141.776 107.353 142.096C107.427 142.224 107.539 142.469 107.689 142.832C107.838 143.195 108.014 143.632 108.217 144.144C108.419 144.656 108.633 145.205 108.857 145.792C109.081 146.368 109.299 146.944 109.513 147.52C109.737 148.085 109.939 148.613 110.121 149.104C110.302 149.595 110.457 150.011 110.585 150.352C110.713 150.683 110.798 150.896 110.841 150.992ZM105.801 148.928C106.078 148.907 106.238 148.827 106.281 148.688C106.334 148.549 106.366 148.389 106.377 148.208C106.377 148.091 106.355 147.947 106.313 147.776C106.281 147.605 106.227 147.456 106.153 147.328C106.089 147.189 106.003 147.12 105.897 147.12C105.747 147.12 105.582 147.227 105.401 147.44C105.23 147.643 105.134 147.851 105.113 148.064C105.081 148.267 105.097 148.464 105.161 148.656C105.235 148.848 105.449 148.939 105.801 148.928ZM127.239 141.28C128.029 141.397 128.653 141.611 129.111 141.92C129.581 142.219 129.927 142.565 130.151 142.96C130.375 143.355 130.519 143.744 130.583 144.128C130.647 144.501 130.679 144.821 130.679 145.088C130.679 145.429 130.621 145.824 130.503 146.272C130.386 146.709 130.189 147.141 129.911 147.568C129.645 147.984 129.287 148.347 128.839 148.656C128.391 148.955 127.831 149.136 127.159 149.2C127.042 149.211 126.893 149.221 126.711 149.232C126.53 149.243 126.365 149.253 126.215 149.264C126.077 149.264 125.991 149.264 125.959 149.264C125.554 149.285 125.181 149.403 124.839 149.616C124.509 149.829 124.242 150.107 124.039 150.448C123.847 150.779 123.746 151.152 123.735 151.568V152.16C123.735 152.437 123.773 152.693 123.847 152.928C123.922 153.152 123.981 153.307 124.023 153.392C123.767 153.627 123.543 153.792 123.351 153.888C123.159 153.984 122.919 154.053 122.631 154.096C122.397 154.128 122.135 154.107 121.847 154.032C121.57 153.957 121.319 153.819 121.095 153.616C120.871 153.403 120.727 153.109 120.663 152.736C120.653 152.672 120.647 152.469 120.647 152.128C120.647 151.776 120.647 151.344 120.647 150.832C120.658 150.309 120.663 149.739 120.663 149.12C120.674 148.501 120.679 147.883 120.679 147.264C120.679 146.645 120.679 146.069 120.679 145.536C120.669 144.96 120.642 144.475 120.599 144.08C120.567 143.685 120.487 143.435 120.359 143.328C120.135 143.136 119.959 142.837 119.831 142.432C119.714 142.027 119.661 141.643 119.671 141.28C119.714 141.291 119.831 141.307 120.023 141.328C120.215 141.339 120.418 141.355 120.631 141.376C120.738 141.376 120.914 141.376 121.159 141.376C121.405 141.365 121.671 141.349 121.959 141.328C122.258 141.307 122.546 141.291 122.823 141.28C123.101 141.259 123.325 141.243 123.495 141.232C123.73 141.211 124.039 141.189 124.423 141.168C124.818 141.147 125.261 141.141 125.751 141.152C126.242 141.163 126.738 141.205 127.239 141.28ZM125.335 146.272C125.485 146.283 125.671 146.272 125.895 146.24C126.13 146.197 126.365 146.133 126.599 146.048C126.845 145.963 127.047 145.845 127.207 145.696C127.367 145.536 127.447 145.344 127.447 145.12C127.447 144.811 127.33 144.571 127.095 144.4C126.871 144.229 126.594 144.112 126.263 144.048C125.943 143.984 125.634 143.957 125.335 143.968C124.898 143.979 124.525 144.101 124.215 144.336C123.906 144.56 123.751 144.827 123.751 145.136C123.762 145.339 123.842 145.525 123.991 145.696C124.151 145.856 124.349 145.989 124.583 146.096C124.829 146.203 125.079 146.261 125.335 146.272ZM144.305 147.136C144.411 148.128 144.363 149.008 144.161 149.776C143.969 150.544 143.665 151.211 143.249 151.776C142.843 152.331 142.363 152.789 141.809 153.152C141.254 153.504 140.662 153.771 140.033 153.952C139.414 154.123 138.801 154.208 138.193 154.208C137.585 154.208 136.966 154.128 136.337 153.968C135.707 153.808 135.11 153.557 134.545 153.216C133.99 152.875 133.499 152.432 133.073 151.888C132.657 151.344 132.347 150.699 132.145 149.952C131.942 149.195 131.894 148.32 132.001 147.328C132.086 146.475 132.299 145.68 132.641 144.944C132.982 144.197 133.425 143.552 133.969 143.008C134.513 142.453 135.137 142.027 135.841 141.728C136.545 141.419 137.297 141.275 138.097 141.296C138.15 141.296 138.23 141.259 138.337 141.184C138.443 141.099 138.587 141.019 138.769 140.944C138.95 140.869 139.169 140.843 139.425 140.864C139.905 140.907 140.411 141.104 140.945 141.456C141.478 141.808 141.985 142.277 142.465 142.864C142.945 143.44 143.35 144.096 143.681 144.832C144.011 145.568 144.219 146.336 144.305 147.136ZM138.241 151.248C138.614 151.237 138.966 151.184 139.297 151.088C139.638 150.992 139.942 150.816 140.209 150.56C140.475 150.304 140.689 149.941 140.849 149.472C141.019 149.003 141.11 148.4 141.121 147.664C141.131 147.152 141.019 146.656 140.785 146.176C140.55 145.696 140.225 145.291 139.809 144.96C139.393 144.619 138.918 144.421 138.385 144.368C137.809 144.304 137.318 144.363 136.913 144.544C136.507 144.715 136.171 144.971 135.905 145.312C135.649 145.643 135.451 146.016 135.312 146.432C135.174 146.848 135.089 147.269 135.057 147.696C134.993 148.432 135.062 149.035 135.265 149.504C135.467 149.973 135.739 150.336 136.081 150.592C136.422 150.848 136.785 151.024 137.169 151.12C137.563 151.216 137.921 151.259 138.241 151.248ZM150.76 141.184C151.389 141.184 151.992 141.296 152.568 141.52C153.155 141.733 153.645 142.021 154.04 142.384C154.445 142.747 154.685 143.136 154.76 143.552C154.813 143.829 154.776 144.139 154.648 144.48C154.52 144.811 154.317 145.104 154.04 145.36C153.763 145.605 153.427 145.739 153.032 145.76C152.893 145.76 152.717 145.744 152.504 145.712C152.291 145.68 152.083 145.616 151.88 145.52C151.688 145.424 151.533 145.285 151.416 145.104C151.576 145.019 151.683 144.928 151.736 144.832C151.789 144.736 151.805 144.64 151.784 144.544C151.741 144.331 151.613 144.155 151.4 144.016C151.197 143.877 150.947 143.792 150.648 143.76C150.477 143.739 150.28 143.744 150.056 143.776C149.832 143.797 149.624 143.872 149.432 144C149.251 144.117 149.123 144.315 149.048 144.592C149.005 144.752 149.011 144.928 149.064 145.12C149.128 145.301 149.277 145.477 149.512 145.648C149.747 145.808 150.104 145.947 150.584 146.064C151.32 146.235 152.003 146.421 152.632 146.624C153.272 146.827 153.832 147.077 154.312 147.376C154.792 147.675 155.16 148.048 155.416 148.496C155.683 148.933 155.805 149.483 155.784 150.144C155.773 150.581 155.656 151.04 155.432 151.52C155.208 152 154.883 152.448 154.456 152.864C154.029 153.269 153.507 153.6 152.888 153.856C152.269 154.112 151.565 154.24 150.776 154.24C150.275 154.24 149.757 154.197 149.224 154.112C148.691 154.027 148.184 153.893 147.704 153.712C147.235 153.531 146.819 153.291 146.456 152.992C146.136 152.715 145.907 152.368 145.768 151.952C145.64 151.536 145.613 151.12 145.688 150.704C145.763 150.277 145.949 149.915 146.248 149.616C146.557 149.317 146.984 149.152 147.528 149.12C147.421 149.44 147.48 149.755 147.704 150.064C147.939 150.363 148.285 150.619 148.744 150.832C149.203 151.035 149.704 151.157 150.248 151.2C150.813 151.243 151.304 151.221 151.72 151.136C152.147 151.051 152.381 150.875 152.424 150.608C152.477 150.288 152.413 150.032 152.232 149.84C152.051 149.648 151.8 149.504 151.48 149.408C151.16 149.301 150.813 149.216 150.44 149.152C150.067 149.077 149.72 149.003 149.4 148.928C148.973 148.811 148.541 148.661 148.104 148.48C147.677 148.288 147.283 148.048 146.92 147.76C146.568 147.472 146.28 147.12 146.056 146.704C145.832 146.288 145.715 145.803 145.704 145.248C145.693 144.597 145.827 144.021 146.104 143.52C146.381 143.008 146.76 142.581 147.24 142.24C147.72 141.888 148.264 141.627 148.872 141.456C149.491 141.275 150.12 141.184 150.76 141.184ZM166.521 141.12C166.649 141.227 166.74 141.435 166.793 141.744C166.857 142.053 166.884 142.389 166.873 142.752C166.862 143.104 166.809 143.424 166.713 143.712C166.617 143.989 166.478 144.155 166.297 144.208C166.222 144.229 166.068 144.261 165.833 144.304C165.609 144.336 165.401 144.379 165.209 144.432C165.028 144.485 164.788 144.576 164.489 144.704C164.19 144.832 163.934 145.019 163.721 145.264C163.55 145.467 163.412 145.68 163.305 145.904C163.198 146.117 163.14 146.395 163.129 146.736C163.118 146.875 163.113 147.136 163.113 147.52C163.113 147.893 163.113 148.331 163.113 148.832C163.113 149.323 163.113 149.808 163.113 150.288C163.124 150.768 163.129 151.179 163.129 151.52C163.129 151.861 163.129 152.064 163.129 152.128C163.118 152.448 163.15 152.72 163.225 152.944C163.3 153.168 163.38 153.301 163.465 153.344C163.198 153.547 162.932 153.717 162.665 153.856C162.409 153.995 162.041 154.096 161.561 154.16C161.38 154.181 161.177 154.128 160.953 154C160.729 153.883 160.532 153.696 160.361 153.44C160.201 153.173 160.116 152.848 160.105 152.464C160.105 152.08 160.1 151.589 160.089 150.992C160.089 150.384 160.089 149.728 160.089 149.024C160.1 148.309 160.1 147.595 160.089 146.88C160.078 146.571 160.03 146.277 159.945 146C159.87 145.723 159.742 145.483 159.561 145.28C159.38 145.067 159.14 144.891 158.841 144.752C158.542 144.613 158.169 144.523 157.721 144.48C157.604 144.469 157.444 144.437 157.241 144.384C157.038 144.331 156.9 144.277 156.825 144.224C156.708 144.139 156.612 143.979 156.537 143.744C156.462 143.499 156.404 143.232 156.361 142.944C156.318 142.645 156.286 142.352 156.265 142.064C156.254 141.776 156.254 141.541 156.265 141.36C156.308 141.371 156.425 141.387 156.617 141.408C156.82 141.429 157.06 141.451 157.337 141.472C157.614 141.483 157.886 141.493 158.153 141.504C158.345 141.515 158.601 141.525 158.921 141.536C159.252 141.547 159.604 141.557 159.977 141.568C160.35 141.579 160.702 141.589 161.033 141.6C161.364 141.6 161.636 141.6 161.849 141.6C162.137 141.589 162.473 141.579 162.857 141.568C163.241 141.557 163.609 141.547 163.961 141.536C164.324 141.515 164.612 141.493 164.825 141.472C165.038 141.451 165.262 141.424 165.497 141.392C165.742 141.349 165.956 141.307 166.137 141.264C166.329 141.211 166.457 141.163 166.521 141.12ZM169.564 154.144C169.105 154.059 168.78 153.749 168.588 153.216C168.406 152.683 168.316 152.021 168.316 151.232C168.316 151.136 168.31 150.896 168.3 150.512C168.3 150.128 168.294 149.653 168.284 149.088C168.284 148.512 168.278 147.893 168.268 147.232C168.268 146.571 168.262 145.909 168.252 145.248C168.241 144.587 168.23 143.979 168.22 143.424C168.209 142.859 168.198 142.395 168.188 142.032C168.177 141.669 168.166 141.451 168.156 141.376C168.316 141.344 168.561 141.339 168.892 141.36C169.233 141.371 169.585 141.424 169.948 141.52C170.321 141.605 170.646 141.755 170.924 141.968C171.201 142.171 171.361 142.453 171.404 142.816C171.425 142.987 171.441 143.28 171.452 143.696C171.462 144.101 171.468 144.587 171.468 145.152C171.478 145.707 171.484 146.299 171.484 146.928C171.484 147.557 171.484 148.181 171.484 148.8C171.484 149.408 171.484 149.973 171.484 150.496C171.484 151.008 171.484 151.44 171.484 151.792C171.494 152.133 171.505 152.341 171.516 152.416C171.537 152.64 171.58 152.805 171.644 152.912C171.708 153.008 171.777 153.131 171.852 153.28C171.585 153.568 171.254 153.803 170.86 153.984C170.465 154.165 170.033 154.219 169.564 154.144ZM183.38 141.12C183.508 141.227 183.599 141.435 183.652 141.744C183.716 142.053 183.743 142.389 183.732 142.752C183.722 143.104 183.668 143.424 183.572 143.712C183.476 143.989 183.338 144.155 183.156 144.208C183.082 144.229 182.927 144.261 182.692 144.304C182.468 144.336 182.26 144.379 182.068 144.432C181.887 144.485 181.647 144.576 181.348 144.704C181.05 144.832 180.794 145.019 180.58 145.264C180.41 145.467 180.271 145.68 180.164 145.904C180.058 146.117 179.999 146.395 179.988 146.736C179.978 146.875 179.972 147.136 179.972 147.52C179.972 147.893 179.972 148.331 179.972 148.832C179.972 149.323 179.972 149.808 179.972 150.288C179.983 150.768 179.988 151.179 179.988 151.52C179.988 151.861 179.988 152.064 179.988 152.128C179.978 152.448 180.01 152.72 180.084 152.944C180.159 153.168 180.239 153.301 180.324 153.344C180.058 153.547 179.791 153.717 179.524 153.856C179.268 153.995 178.9 154.096 178.42 154.16C178.239 154.181 178.036 154.128 177.812 154C177.588 153.883 177.391 153.696 177.22 153.44C177.06 153.173 176.975 152.848 176.964 152.464C176.964 152.08 176.959 151.589 176.948 150.992C176.948 150.384 176.948 149.728 176.948 149.024C176.959 148.309 176.959 147.595 176.948 146.88C176.938 146.571 176.89 146.277 176.804 146C176.73 145.723 176.602 145.483 176.42 145.28C176.239 145.067 175.999 144.891 175.7 144.752C175.402 144.613 175.028 144.523 174.58 144.48C174.463 144.469 174.303 144.437 174.1 144.384C173.898 144.331 173.759 144.277 173.684 144.224C173.567 144.139 173.471 143.979 173.396 143.744C173.322 143.499 173.263 143.232 173.22 142.944C173.178 142.645 173.146 142.352 173.124 142.064C173.114 141.776 173.114 141.541 173.124 141.36C173.167 141.371 173.284 141.387 173.476 141.408C173.679 141.429 173.919 141.451 174.196 141.472C174.474 141.483 174.746 141.493 175.012 141.504C175.204 141.515 175.46 141.525 175.78 141.536C176.111 141.547 176.463 141.557 176.836 141.568C177.21 141.579 177.562 141.589 177.892 141.6C178.223 141.6 178.495 141.6 178.708 141.6C178.996 141.589 179.332 141.579 179.716 141.568C180.1 141.557 180.468 141.547 180.82 141.536C181.183 141.515 181.471 141.493 181.684 141.472C181.898 141.451 182.122 141.424 182.356 141.392C182.602 141.349 182.815 141.307 182.996 141.264C183.188 141.211 183.316 141.163 183.38 141.12Z" fill="#04262D" fill-opacity="0.85"/>
<defs>
<filter id="filter0_d_9_52" x="16" y="104" width="215" height="115" filterUnits="userSpaceOnUse" color-interpolation-filters="sRGB">
<feFlood flood-opacity="0" result="BackgroundImageFix"/>
<feColorMatrix in="SourceAlpha" type="matrix" values="0 0 0 0 0 0 0 0 0 0 0 0 0 0 0 0 0 0 127 0" result="hardAlpha"/>
<feOffset dy="16"/>
<feGaussianBlur stdDeviation="7.5"/>
<feComposite in2="hardAlpha" operator="out"/>
<feColorMatrix type="matrix" values="0 0 0 0 0 0 0 0 0 0 0 0 0 0 0 0 0 0 0.55 0"/>
<feBlend mode="normal" in2="BackgroundImageFix" result="effect1_dropShadow_9_52"/>
<feBlend mode="normal" in="SourceGraphic" in2="effect1_dropShadow_9_52" result="shape"/>
</filter>
<filter id="filter1_d_9_52" x="26.0381" y="28.5" width="220" height="191" filterUnits="userSpaceOnUse" color-interpolation-filters="sRGB">
<feFlood flood-opacity="0" result="BackgroundImageFix"/>
<feColorMatrix in="SourceAlpha" type="matrix" values="0 0 0 0 0 0 0 0 0 0 0 0 0 0 0 0 0 0 127 0" result="hardAlpha"/>
<feOffset dx="12" dy="20"/>
<feGaussianBlur stdDeviation="4"/>
<feComposite in2="hardAlpha" operator="out"/>
<feColorMatrix type="matrix" values="0 0 0 0 0 0 0 0 0 0 0 0 0 0 0 0 0 0 0.12 0"/>
<feBlend mode="normal" in2="BackgroundImageFix" result="effect1_dropShadow_9_52"/>
<feBlend mode="normal" in="SourceGraphic" in2="effect1_dropShadow_9_52" result="shape"/>
</filter>
<filter id="filter2_d_9_52" x="0" y="25" width="184" height="191" filterUnits="userSpaceOnUse" color-interpolation-filters="sRGB">
<feFlood flood-opacity="0" result="BackgroundImageFix"/>
<feColorMatrix in="SourceAlpha" type="matrix" values="0 0 0 0 0 0 0 0 0 0 0 0 0 0 0 0 0 0 127 0" result="hardAlpha"/>
<feOffset dx="-18" dy="20"/>
<feGaussianBlur stdDeviation="4"/>
<feComposite in2="hardAlpha" operator="out"/>
<feColorMatrix type="matrix" values="0 0 0 0 0 0 0 0 0 0 0 0 0 0 0 0 0 0 0.12 0"/>
<feBlend mode="normal" in2="BackgroundImageFix" result="effect1_dropShadow_9_52"/>
<feBlend mode="normal" in="SourceGraphic" in2="effect1_dropShadow_9_52" result="shape"/>
</filter>
</defs>
</svg>
