<svg width="335" height="314" viewBox="0 0 335 314" fill="none" xmlns="http://www.w3.org/2000/svg">
<g filter="url(#filter0_d_6_168)">
<path d="M37.4463 32H304.5L333 293.11C333 293.11 8.99119 299.613 14.0588 293.11C19.1265 286.607 37.4463 32 37.4463 32Z" fill="#A2EEFF"/>
</g>
<g clip-path="url(#clip0_6_168)" filter="url(#filter1_d_6_168)">
<path d="M159.337 37.5527C159.294 37.2686 159.259 36.9807 159.25 36.6978C159.212 35.8669 159.236 33.7936 160.19 33.3974C160.755 33.1611 161.52 33.8458 161.739 34.2598C162.278 35.2835 162.231 36.8026 162.461 37.934C162.648 38.8259 162.704 39.7742 162.824 40.6833C163.017 42.1401 163.338 43.6412 163.409 45.1085C163.406 45.1116 163.961 56.8571 163.961 56.8571L162.98 56.9867L160.462 45.4923C160.198 43.4933 159.931 41.4974 159.67 39.5008C159.591 38.8593 159.44 38.2022 159.337 37.5527Z" fill="url(#paint0_linear_6_168)"/>
<path d="M159.406 37.6049C156.8 37.8517 154.188 37.8429 151.698 37.5534C149.799 37.3334 145.384 36.8079 145.042 34.262L144.748 32.0384C144.475 29.9542 147.944 27.6766 153.146 26.1813L151.325 12.402C147.231 12.369 144.36 11.6395 144.193 10.3798L143.819 7.56792C143.577 5.73871 149.159 3.49116 156.29 2.54906C163.415 1.60769 169.394 2.32777 169.634 4.16009L170.005 6.96962C170.169 8.23236 167.585 9.68256 163.643 10.7747L165.465 24.5509C170.88 24.6462 174.822 25.9449 175.1 28.0284L175.393 30.2519C175.741 32.8807 171.372 34.5668 169.545 35.2679C166.395 36.4809 162.909 37.2731 159.406 37.6049Z" fill="url(#paint1_linear_6_168)"/>
<path d="M169.315 3.83719C169.524 5.41447 164.022 7.44801 157.023 8.37274C150.024 9.29747 144.186 8.76483 143.975 7.18517C143.766 5.60788 149.268 3.57434 156.267 2.64961C163.266 1.72488 169.107 2.2599 169.315 3.83719Z" fill="url(#paint2_linear_6_168)"/>
<path d="M175.018 27.7049C175.277 29.6655 168.729 32.1521 160.394 33.2534C152.058 34.3547 145.087 33.657 144.828 31.6963C144.569 29.7357 149.859 25.9748 159.406 24.7886C168.663 23.6353 174.759 25.7442 175.018 27.7049Z" fill="url(#paint3_linear_6_168)"/>
<path d="M153.174 28.0778L151.325 12.402C151.325 12.402 154.875 12.4261 157.184 12.1434C159.493 11.8607 163.65 10.7708 163.65 10.7708L165.682 26.1689C165.682 26.1689 163.463 27.4901 159.608 27.9995C155.12 28.5952 153.174 28.0778 153.174 28.0778Z" fill="url(#paint4_linear_6_168)"/>
<g opacity="0.2">
<path d="M145.115 7.25187C145.2 7.14026 145.73 6.55206 147.912 5.7594C147.92 5.75557 147.928 5.75175 147.939 5.7503C150.187 4.87941 153.201 4.16348 156.422 3.73802C159.993 3.26625 163.445 3.20575 165.881 3.57207C165.89 3.57373 165.895 3.573 165.904 3.57465C167.528 3.78632 168.055 4.10673 168.176 4.19942C168.207 4.22318 168.237 4.24147 168.271 4.26214C168.377 4.32889 168.434 4.37714 168.46 4.40711L168.815 7.07663C168.807 7.0945 168.788 7.12478 168.76 7.16198C168.311 7.7479 166.616 8.75198 163.313 9.67034C163.057 9.74031 162.846 9.88809 162.693 10.0865C162.51 10.3252 162.42 10.6352 162.462 10.9529L164.275 24.6524C164.35 25.222 164.831 25.6544 165.404 25.6706C168.545 25.76 170.577 26.2549 171.737 26.6562L171.865 26.7005C173.334 27.2308 173.791 27.7583 173.834 27.8947C173.845 27.9574 173.864 28.0161 173.886 28.0773C173.903 28.1252 173.914 28.1683 173.917 28.2097L174.211 30.4332C174.238 30.6413 174.232 30.971 173.868 31.4453C172.861 32.7597 170.227 33.768 169.103 34.2007C166.939 35.0326 164.594 35.6658 162.133 36.0828C161.828 36.1343 161.573 36.2988 161.4 36.5251C161.219 36.7607 161.129 37.0653 161.165 37.3836C161.195 37.6277 161.235 37.9149 161.292 38.1999C161.406 38.7448 161.469 39.3244 161.533 39.9345C161.565 40.245 161.598 40.5556 161.639 40.8622C161.704 41.3551 161.784 41.8545 161.861 42.3373C162.015 43.2867 162.169 44.2665 162.216 45.1881L162.23 45.189C162.237 45.5587 162.278 46.481 162.394 48.9425L161.6 45.3168L161.108 41.5926L160.813 39.3777C160.76 38.9779 160.688 38.5834 160.613 38.2005C160.566 37.9531 160.519 37.7003 160.478 37.4522C160.38 36.8409 159.828 36.4124 159.211 36.4716C156.66 36.7111 154.17 36.6919 151.804 36.4193C148.217 36.0073 146.324 35.2349 146.176 34.1372L145.88 31.9168C145.844 31.6234 146.042 31.288 146.22 31.0555C146.531 30.6493 147.041 30.2086 147.692 29.7772C147.7 29.7733 147.702 29.7702 147.71 29.7664C148.679 29.1063 150.426 28.1371 153.254 27.2731C153.498 27.1991 153.699 27.0528 153.844 26.8637C154.024 26.6281 154.112 26.3267 154.077 26.0138L152.461 12.2882C152.392 11.7038 151.896 11.2595 151.305 11.254C147.406 11.2231 145.621 10.5394 145.318 10.1839L144.964 7.50576C144.971 7.49646 144.975 7.48479 144.985 7.47239C145.026 7.40563 145.06 7.34818 145.087 7.27502C145.096 7.28215 145.1 7.27047 145.115 7.25187ZM144.185 6.5389C144.106 6.6412 144.047 6.74372 144.008 6.84643C143.843 7.0994 143.768 7.35174 143.801 7.5982L144.175 10.4101C144.341 11.6697 147.213 12.3993 151.307 12.4323L152.92 26.1555C150.397 26.9235 148.426 27.8637 147.053 28.8001C146.297 29.2984 145.7 29.8202 145.299 30.3442C144.857 30.9208 144.652 31.5022 144.724 32.0694L145.018 34.293C145.357 36.8365 149.77 37.3651 151.674 37.5844C154.147 37.8706 156.742 37.8816 159.326 37.6377C159.429 38.2677 159.572 38.9036 159.654 39.528C159.921 41.5239 160.185 43.5229 160.446 45.5195L162.965 57.0138L163.945 56.8843C163.945 56.8843 163.391 45.1388 163.393 45.1357C163.324 43.6653 163.003 42.1642 162.808 40.7105C162.688 39.8014 162.633 38.8586 162.445 37.9612C162.398 37.7334 162.363 37.49 162.333 37.2405C164.824 36.8167 167.262 36.1658 169.527 35.2982C170.874 34.7803 173.599 33.7293 174.801 32.1606C175.232 31.5995 175.466 30.9723 175.375 30.2822L175.081 28.0587C175.064 27.9272 175.03 27.798 174.986 27.6756C174.842 26.9397 173.89 26.1905 172.263 25.6031C172.217 25.5869 172.167 25.5684 172.12 25.5523C170.491 24.9875 168.219 24.5799 165.442 24.5038L163.632 10.8011C166.68 9.95819 168.914 8.89964 169.696 7.8797C169.927 7.57899 170.03 7.28396 169.992 6.99918L169.621 4.18964C169.575 3.84461 169.32 3.53565 168.895 3.27413C168.378 2.88272 167.393 2.59498 166.066 2.41927C163.613 2.04964 160.114 2.07449 156.28 2.58099C152.831 3.02827 149.755 3.78573 147.516 4.65828C145.843 5.261 144.662 5.91577 144.185 6.5389Z" fill="#424242"/>
</g>
</g>
<g filter="url(#filter2_d_6_168)">
<ellipse cx="15" cy="11.5" rx="15" ry="11.5" transform="matrix(-1 0 0 1 177 41)" fill="#070000" fill-opacity="0.29" shape-rendering="crispEdges"/>
</g>
<defs>
<filter id="filter0_d_6_168" x="0" y="32" width="335" height="282" filterUnits="userSpaceOnUse" color-interpolation-filters="sRGB">
<feFlood flood-opacity="0" result="BackgroundImageFix"/>
<feColorMatrix in="SourceAlpha" type="matrix" values="0 0 0 0 0 0 0 0 0 0 0 0 0 0 0 0 0 0 127 0" result="hardAlpha"/>
<feOffset dx="-6" dy="10"/>
<feGaussianBlur stdDeviation="4"/>
<feComposite in2="hardAlpha" operator="out"/>
<feColorMatrix type="matrix" values="0 0 0 0 0 0 0 0 0 0 0 0 0 0 0 0 0 0 0.25 0"/>
<feBlend mode="normal" in2="BackgroundImageFix" result="effect1_dropShadow_6_168"/>
<feBlend mode="normal" in="SourceGraphic" in2="effect1_dropShadow_6_168" result="shape"/>
</filter>
<filter id="filter1_d_6_168" x="130" y="0" width="58" height="58" filterUnits="userSpaceOnUse" color-interpolation-filters="sRGB">
<feFlood flood-opacity="0" result="BackgroundImageFix"/>
<feColorMatrix in="SourceAlpha" type="matrix" values="0 0 0 0 0 0 0 0 0 0 0 0 0 0 0 0 0 0 127 0" result="hardAlpha"/>
<feOffset dy="4"/>
<feGaussianBlur stdDeviation="2"/>
<feComposite in2="hardAlpha" operator="out"/>
<feColorMatrix type="matrix" values="0 0 0 0 0 0 0 0 0 0 0 0 0 0 0 0 0 0 0.25 0"/>
<feBlend mode="normal" in2="BackgroundImageFix" result="effect1_dropShadow_6_168"/>
<feBlend mode="normal" in="SourceGraphic" in2="effect1_dropShadow_6_168" result="shape"/>
</filter>
<filter id="filter2_d_6_168" x="132" y="26" width="60" height="53" filterUnits="userSpaceOnUse" color-interpolation-filters="sRGB">
<feFlood flood-opacity="0" result="BackgroundImageFix"/>
<feColorMatrix in="SourceAlpha" type="matrix" values="0 0 0 0 0 0 0 0 0 0 0 0 0 0 0 0 0 0 127 0" result="hardAlpha"/>
<feOffset/>
<feGaussianBlur stdDeviation="7.5"/>
<feComposite in2="hardAlpha" operator="out"/>
<feColorMatrix type="matrix" values="0 0 0 0 0 0 0 0 0 0 0 0 0 0 0 0 0 0 0.25 0"/>
<feBlend mode="normal" in2="BackgroundImageFix" result="effect1_dropShadow_6_168"/>
<feBlend mode="normal" in="SourceGraphic" in2="effect1_dropShadow_6_168" result="shape"/>
</filter>
<linearGradient id="paint0_linear_6_168" x1="161.077" y1="45.2479" x2="163.588" y2="44.9162" gradientUnits="userSpaceOnUse">
<stop stop-color="#F5F5F5"/>
<stop offset="0.1455" stop-color="#EFEFEF"/>
<stop offset="0.3368" stop-color="#DFDFDF"/>
<stop offset="0.5535" stop-color="#C3C3C3"/>
<stop offset="0.7872" stop-color="#9E9E9E"/>
<stop offset="1" stop-color="#757575"/>
</linearGradient>
<linearGradient id="paint1_linear_6_168" x1="143.27" y1="22.0177" x2="173.668" y2="18.0016" gradientUnits="userSpaceOnUse">
<stop offset="0.00484452" stop-color="#F44336"/>
<stop offset="0.1943" stop-color="#EC3E33"/>
<stop offset="0.4956" stop-color="#D4302C"/>
<stop offset="0.6496" stop-color="#C62828"/>
</linearGradient>
<linearGradient id="paint2_linear_6_168" x1="151.008" y1="12.8654" x2="162.283" y2="-1.84266" gradientUnits="userSpaceOnUse">
<stop offset="0.00202972" stop-color="#FF5252"/>
<stop offset="0.0742" stop-color="#F34949"/>
<stop offset="0.2674" stop-color="#D93535"/>
<stop offset="0.4653" stop-color="#C62727"/>
<stop offset="0.6692" stop-color="#BB1F1F"/>
<stop offset="0.8882" stop-color="#B71C1C"/>
</linearGradient>
<linearGradient id="paint3_linear_6_168" x1="153.203" y1="38.7574" x2="167.36" y2="21.0734" gradientUnits="userSpaceOnUse">
<stop offset="0.00202972" stop-color="#FF5252"/>
<stop offset="0.1867" stop-color="#E13B3B"/>
<stop offset="0.3739" stop-color="#CA2A2A"/>
<stop offset="0.5502" stop-color="#BC2020"/>
<stop offset="0.7029" stop-color="#B71C1C"/>
</linearGradient>
<linearGradient id="paint4_linear_6_168" x1="152.126" y1="20.6424" x2="164.688" y2="18.9827" gradientUnits="userSpaceOnUse">
<stop offset="0.00484452" stop-color="#F44336"/>
<stop offset="0.1454" stop-color="#EC3E32"/>
<stop offset="0.3689" stop-color="#D42F29"/>
<stop offset="0.5918" stop-color="#B71C1C"/>
</linearGradient>
<clipPath id="clip0_6_168">
<rect width="50" height="50" fill="white" transform="translate(134)"/>
</clipPath>
</defs>
</svg>
